<svg width="38" height="128" fill="none" xmlns="http://www.w3.org/2000/svg"><path d="M2.632 2.648C3.496 1.304 4.6.632 5.944.632 7.8.632 8.952 2.104 9.4 5.048c-2.976.512-5.04 1.6-6.192 3.264-1.024 1.472-1.536 3.024-1.536 4.656 0 1.664.496 3.088 1.488 4.272 1.024 1.216 2.688 1.824 4.992 1.824 1.728 0 3.088-.624 4.08-1.872 1.024-1.216 1.92-2.768 2.688-4.656a272 272 0 0 1 1.584-3.84c.32-.672.784-1.536 1.392-2.592.608-1.024 1.184-1.792 1.728-2.304 1.472-1.28 3.168-1.92 5.088-1.92 3.008 0 5.28 1.12 6.816 3.36 1.536 2.24 2.304 5.36 2.304 9.36 0 2.272-.256 4.912-.768 7.92H25.96v-1.584l5.664-1.92c.512-1.6.768-3.232.768-4.896 0-1.632-.528-3.056-1.584-4.272-1.024-1.216-2.56-1.824-4.608-1.824-2.336 0-4.08 1.056-5.232 3.168-.544 1.056-1.088 2.304-1.632 3.744-.544 1.44-.96 2.48-1.248 3.12-.256.64-.688 1.488-1.296 2.544-.576 1.056-1.152 1.84-1.728 2.352-.576.512-1.344.976-2.304 1.392-.928.416-1.952.624-3.072.624-2.72 0-4.944-1.152-6.672-3.456C1.288 19.208.424 16.056.424 12.056c0-3.968.736-7.104 2.208-9.408Zm14.016 41.866c.64.16 1.36.24 2.16.24.832 0 1.68-.24 2.544-.72 1.408-.703 2.112-1.776 2.112-3.215 0-3.84-3.616-5.76-10.848-5.76-7.2 0-10.8 1.968-10.8 5.904 0 2.975 1.44 5.36 4.32 7.151-.224.705-.576 1.056-1.056 1.056-.448 0-1.024-.303-1.728-.912-.672-.576-1.328-1.6-1.968-3.072-.608-1.44-.912-3.103-.912-4.992 0-3.616 1.104-6.48 3.312-8.592 2.24-2.08 5.216-3.12 8.928-3.12 3.744 0 6.72 1.088 8.928 3.265 2.208 2.175 3.312 5.231 3.312 9.167 0 1.216-.16 2.416-.48 3.6-.288 1.184-.928 2.304-1.92 3.36-.992 1.056-2.192 1.584-3.6 1.584-1.376 0-2.272-.623-2.688-1.871a4.398 4.398 0 0 1-.24-1.489c0-.544.208-1.072.624-1.584Zm2.112 16.934c1.728.544 3.2 1.536 4.416 2.976 1.216 1.472 1.824 2.8 1.824 3.984 0 1.216-.304 2.032-.912 2.448-.576.416-1.056.624-1.44.624-1.312 0-2.256-.48-2.832-1.44.512-.64.768-1.6.768-2.88 0-1.248-.4-2.496-1.2-3.744-.768-1.248-1.616-1.872-2.544-1.872H2.392l-.288 4.32H1V52.472h1.104l.24 3.168H22.84l.192-3.888h1.104l.528 9.792-5.904-.288v.192ZM3.928 94.99C1.624 92.75.472 89.694.472 85.822c0-3.872 1.152-6.928 3.456-9.168 2.304-2.24 5.232-3.36 8.784-3.36 3.552 0 6.48 1.12 8.784 3.36 2.304 2.24 3.456 5.296 3.456 9.168 0 3.872-1.152 6.928-3.456 9.168-2.304 2.24-5.232 3.36-8.784 3.36-3.552 0-6.48-1.12-8.784-3.36Zm8.784-15.024c-7.392 0-11.088 1.952-11.088 5.856s3.696 5.856 11.088 5.856c3.616 0 6.352-.432 8.208-1.296 1.888-.864 2.832-2.384 2.832-4.56 0-2.176-.944-3.696-2.832-4.56-1.856-.864-4.592-1.296-8.208-1.296ZM1 113.547v-12.384h1.104l.288 3.12h33.072l.144-4.128h1.152l1.104 10.272H2.392l-.288 3.12H1Zm0 14.297V115.46h1.104l.288 3.12h33.072l.144-4.128h1.152l1.104 10.272H2.392l-.288 3.12H1Z" fill="#fff"/></svg>