<svg width="38" height="128" viewBox="0 0 38 128" fill="none" xmlns="http://www.w3.org/2000/svg">
<path d="M2.632 2.648C3.496 1.304 4.6 0.632 5.944 0.632C7.8 0.632 8.952 2.104 9.4 5.048C6.424 5.56 4.36 6.648 3.208 8.312C2.184 9.784 1.672 11.336 1.672 12.968C1.672 14.632 2.168 16.056 3.16 17.24C4.184 18.456 5.848 19.064 8.152 19.064C9.88 19.064 11.24 18.44 12.232 17.192C13.256 15.976 14.152 14.424 14.92 12.536C15.688 10.648 16.216 9.368 16.504 8.696C16.824 8.024 17.288 7.16 17.896 6.104C18.504 5.08 19.08 4.312 19.624 3.8C21.096 2.52 22.792 1.88 24.712 1.88C27.72 1.88 29.992 3 31.528 5.24C33.064 7.48 33.832 10.6 33.832 14.6C33.832 16.872 33.576 19.512 33.064 22.52H25.96V20.936L31.624 19.016C32.136 17.416 32.392 15.784 32.392 14.12C32.392 12.488 31.864 11.064 30.808 9.848C29.784 8.632 28.248 8.024 26.2 8.024C23.864 8.024 22.12 9.08 20.968 11.192C20.424 12.248 19.88 13.496 19.336 14.936C18.792 16.376 18.376 17.416 18.088 18.056C17.832 18.696 17.4 19.544 16.792 20.6C16.216 21.656 15.64 22.44 15.064 22.952C14.488 23.464 13.72 23.928 12.76 24.344C11.832 24.76 10.808 24.968 9.688 24.968C6.968 24.968 4.744 23.816 3.016 21.512C1.288 19.208 0.424 16.056 0.424 12.056C0.424 8.088 1.16 4.952 2.632 2.648ZM16.648 44.5145C17.288 44.6745 18.008 44.7545 18.808 44.7545C19.64 44.7545 20.488 44.5145 21.352 44.0345C22.76 43.3305 23.464 42.2585 23.464 40.8185C23.464 36.9785 19.848 35.0585 12.616 35.0585C5.416 35.0585 1.816 37.0265 1.816 40.9625C1.816 43.9385 3.256 46.3225 6.136 48.1145C5.912 48.8185 5.56 49.1705 5.08 49.1705C4.632 49.1705 4.056 48.8665 3.352 48.2585C2.68 47.6825 2.024 46.6585 1.384 45.1865C0.776 43.7465 0.472 42.0825 0.472 40.1945C0.472 36.5785 1.576 33.7145 3.784 31.6025C6.024 29.5225 9 28.4825 12.712 28.4825C16.456 28.4825 19.432 29.5705 21.64 31.7465C23.848 33.9225 24.952 36.9785 24.952 40.9145C24.952 42.1305 24.792 43.3305 24.472 44.5145C24.184 45.6985 23.544 46.8185 22.552 47.8745C21.56 48.9305 20.36 49.4585 18.952 49.4585C17.576 49.4585 16.68 48.8345 16.264 47.5865C16.104 47.1385 16.024 46.6425 16.024 46.0985C16.024 45.5545 16.232 45.0265 16.648 44.5145ZM18.76 61.4484C20.488 61.9924 21.96 62.9844 23.176 64.4244C24.392 65.8964 25 67.2244 25 68.4084C25 69.6244 24.696 70.4404 24.088 70.8564C23.512 71.2724 23.032 71.4804 22.648 71.4804C21.336 71.4804 20.392 71.0004 19.816 70.0404C20.328 69.4004 20.584 68.4404 20.584 67.1604C20.584 65.9124 20.184 64.6644 19.384 63.4164C18.616 62.1684 17.768 61.5444 16.84 61.5444H2.392L2.104 65.8644H1L1 52.4724H2.104L2.344 55.6404H22.84L23.032 51.7524H24.136L24.664 61.5444L18.76 61.2564V61.4484ZM3.928 94.9899C1.624 92.7499 0.472 89.6939 0.472 85.8219C0.472 81.9499 1.624 78.8939 3.928 76.6539C6.232 74.4139 9.16 73.2939 12.712 73.2939C16.264 73.2939 19.192 74.4139 21.496 76.6539C23.8 78.8939 24.952 81.9499 24.952 85.8219C24.952 89.6939 23.8 92.7499 21.496 94.9899C19.192 97.2299 16.264 98.3499 12.712 98.3499C9.16 98.3499 6.232 97.2299 3.928 94.9899ZM12.712 79.9659C5.32 79.9659 1.624 81.9179 1.624 85.8219C1.624 89.7259 5.32 91.6779 12.712 91.6779C16.328 91.6779 19.064 91.2459 20.92 90.3819C22.808 89.5179 23.752 87.9979 23.752 85.8219C23.752 83.6459 22.808 82.1259 20.92 81.2619C19.064 80.3979 16.328 79.9659 12.712 79.9659ZM1 113.547V101.163H2.104L2.392 104.283H35.464L35.608 100.155H36.76L37.864 110.427H2.392L2.104 113.547H1ZM1 127.844V115.46H2.104L2.392 118.58H35.464L35.608 114.452H36.76L37.864 124.724H2.392L2.104 127.844H1Z" fill="white"/>
</svg>
